<svg xmlns="http://www.w3.org/2000/svg" viewBox="0 0 1920 1080" fill="#8da8ff"><path d="M0,263.1V526.3l5.3-4.9c38.6-36.2,88.2-64.4,133.9-75.9,32.9-8.4,57.8-9.1,106.1-3.3,14.2,1.8,23.7,2.2,43.2,2.3,22.4,0,26.1-.2,35.9-2.3,46.9-10.1,79-35.1,108.8-84.9,4.2-7,15.1-26.6,24.1-43.4,36.6-68.1,47.8-82.6,96.7-126,30.4-26.9,44.2-41.6,56.3-59.7,22.2-33.3,32.2-78.7,27.1-122.7L636.7,0H0Z"/><path d="M1917.9,555.7c-2.7,3.2-22.4,19.7-33.3,27.8-33.4,24.8-68.6,42.1-103.8,51-32.9,8.4-57.8,9.1-106.1,3.3-14.2-1.8-23.7-2.2-43.2-2.3-22.4,0-26.1.2-35.9,2.3-46.9,10.1-79,35.1-108.8,84.9-4.2,7-15.1,26.6-24.1,43.4-36.6,68.1-47.8,82.6-96.7,126-30.4,26.9-44.2,41.6-56.3,59.7-22.2,33.3-32.2,78.7-27.1,122.7l.7,5.5H1920V817c0-144.7-.2-263-.4-263A6.23,6.23,0,0,0,1917.9,555.7Z"/></svg>